<svg xmlns="http://www.w3.org/2000/svg" viewBox="0 0 24 24" width="512" height="512">
  <defs>
    <linearGradient id="purpleGradient" x1="0%" y1="0%" x2="100%" y2="100%">
      <stop offset="0%" stop-color="#d8b4fe" /> <!-- tailwind purple-300 -->
      <stop offset="100%" stop-color="#9333ea" /> <!-- tailwind purple-600 -->
    </linearGradient>
    <filter id="glow" x="-20%" y="-20%" width="140%" height="140%">
      <feGaussianBlur stdDeviation="1.5" result="blur" />
      <feComposite in="SourceGraphic" in2="blur" operator="over" />
    </filter>
  </defs>
  
  <!-- Dark minimal squircle background -->
  <rect width="24" height="24" rx="5" fill="#0f0f13" />
  
  <!-- Sleek purple droplet (car wash / water) -->
  <path d="M12 21.5a6.5 6.5 0 0 0 6.5-6.5c0-1.86-.93-3.62-2.79-5.11-1.86-1.49-3.25-3.72-3.71-6.04-.46 2.32-1.85 4.55-3.71 6.04C6.43 11.38 5.5 13.14 5.5 15a6.5 6.5 0 0 0 6.5 6.5z" fill="url(#purpleGradient)" />
  
  <!-- Sparkles -->
  <path d="M18.5 7.5 Q 18.5 9.5, 20.5 9.5 Q 18.5 9.5, 18.5 11.5 Q 18.5 9.5, 16.5 9.5 Q 18.5 9.5, 18.5 7.5 Z" fill="#ffffff" opacity="0.9" filter="url(#glow)"/>
  <path d="M7 10 Q 7 11, 8 11 Q 7 11, 7 12 Q 7 11, 6 11 Q 7 11, 7 10 Z" fill="#ffffff" opacity="0.6" />
</svg>